PathFileType	4	(X/Y/Z)	C:/Users/beibeiliu/ov580/test_trc\sequence.9_training_dense_left.trc
DataRate	CameraRate	NumFrames	NumMarkers	Units	OrigDataRate	OrigDataStartFrame	OrigNumFrames
120	120	22	19	mm	120	1	200
Frame#	Time	ThumbCMC			ThumbMCP			ThumbIP			ThumbTip			IndexMCP			IndexPIP			IndexTip			MiddleMCP			MiddlePIP			MiddleTip			RingMCP			RingPIP			RingTip			PinkyMCP			PinkyPIP			PinkyTip			BackHand1			BackHand2			BackHand3	
		X0	Y0	Z0	X1	Y1	Z1	X2	Y2	Z2	X3	Y3	Z3	X4	Y4	Z4	X5	Y5	Z5	X6	Y6	Z6	X7	Y7	Z7	X8	Y8	Z8	X9	Y9	Z9	X10	Y10	Z10	X11	Y11	Z11	X12	Y12	Z12	X13	Y13	Z13	X14	Y14	Z14	X15	Y15	Z15	X16	Y16	Z16	X17	Y17	Z17	X18	Y18	Z18	
0	0	-184.374	69.2671	114.804	-153.255	70.2319	102.118	-132.068	75.9899	83.093	-115.976	69.8767	60.292	-172.267	59.5145	43.4651	-143.157	60.7403	37.2186	-112.613	53.3292	52.4727	-184.022	38.6361	32.4589	-165.655	36.104	9.66019	-139.635	32.6653	-6.78584	-185.94	18.4678	34.9462	-174.941	13.8723	14.8901	-156.446	10.5541	-5.92072	-185.065	-6.47438	49.9918	-176.43	-12.4466	33.1191	-168.436	-17.2258	8.23869	-211.246	17.3575	79.891	-222.602	15.9409	112.798	-216.4	47.5808	95.5051	
1	0.00833333	-210.994	62.9126	107.585	-183.992	76.5213	94.166	-167.097	81.4638	75.0162	-148.839	81.6286	53.2819	-196.448	51.1481	37.6102	-166.905	61.5407	29.7681	-139.403	67.6132	45.0263	-199.503	28.7265	28.1104	-184.548	30.4066	8.94792	-157.427	34.3451	-10.2355	-194.02	4.66825	37.1604	-182.257	7.98813	14.7919	-161.866	9.76285	-10.4898	-184.966	-8.71304	55.3858	-171.537	-16.0896	31.2455	-165.91	-22.8093	13.1301	-216.573	1.24457	84.6884	-228.051	1.64282	110.945	-232.556	31.8227	92.0383	
2	0.0166667	-234.609	50.7883	106.152	-213.836	69.3317	91.4822	-197.119	82.0718	65.8629	-183.328	81.0885	50.4924	-218.037	43.51	32.2726	-195.019	54.4444	24.7506	-172.865	72.5289	33.8783	-213.948	12.1967	30.5947	-199.227	19.1575	6.80483	-178.982	30.5131	-12.6316	-204.696	-1.75336	39.3207	-188.615	-0.709363	11.4894	-171.71	3.4295	-9.53383	-187.426	-15.9227	55.9153	-173.11	-19.0751	35.9973	-164.702	-23.668	16.1226	-221.233	-12.2338	85.7423	-231.045	-10.6497	112.887	-245.086	12.3511	94.7944	
3	0.025	-253.57	34.0155	101.112	-235.626	52.4844	86.482	-224.36	65.4769	64.1171	-211.34	69.2442	46.9195	-235.716	19.71	32.8912	-218.166	41.8663	20.9231	-196.42	55.0457	30.0618	-228.039	-6.61315	33.6542	-212.352	0.0919534	6.14729	-193.879	12.4383	-12.9669	-213.345	-18.9205	39.3051	-198.76	-17.8962	14.89	-187.89	-11.8313	-4.89165	-196.354	-24.1613	58.9755	-183.02	-28.171	37.7392	-170.98	-36.3182	19.3743	-226.451	-26.676	86.6959	-232.59	-29.6754	116.53	-255.451	-8.35004	94.8262	
4	0.0333333	-266.174	8.53317	108.223	-254.651	31.9716	84.9579	-248.119	46.1619	63.6325	-234.996	49.4379	41.8352	-257.638	-6.34404	37.5259	-241.776	12.5046	21.2841	-223.381	37.008	25.8827	-243.249	-30.1844	31.5694	-230.471	-21.1781	6.66108	-216.79	-10.4261	-11.9954	-221.294	-41.8518	44.7894	-213.651	-38.8114	15.8597	-200.394	-31.8102	-6.71434	-201.28	-44.3542	60.7186	-194.89	-43.8556	40.8079	-181.338	-52.6649	21.1122	-234.855	-47.9373	92.3141	-243.21	-45.3733	119.777	-264.027	-30.8935	100.769	
5	0.0416667	-280.31	-7.26974	107.714	-271.483	14.2307	87.1833	-266.171	25.6144	60.6606	-256.73	30.9652	39.4278	-278.336	-26.4048	43.1345	-259.621	-6.01974	23.6977	-246.603	17.2712	25.1954	-258.321	-51.0821	38.0522	-252.712	-44.3522	12.1072	-237.64	-32.3868	-10.8136	-238.517	-60.0369	48.0697	-231.291	-58.6758	18.8777	-222.85	-52.145	-2.9684	-219.504	-59.7281	61.9776	-212.272	-59.9137	43.4831	-198.665	-66.4811	21.6195	-250.29	-60.8006	100.132	-250.802	-59.0335	127.122	-279.54	-45.3552	108.164	
6	0.05	-295.475	-6.31033	110.512	-286.128	14.6864	87.0612	-280.402	23.297	65.6164	-273.166	24.791	41.02	-294.014	-28.8535	42.4213	-286.138	-10.5645	26.6824	-265.033	11.4956	24.485	-281.024	-55.8074	40.1559	-279.391	-50.2951	16.0544	-267.394	-38.4472	-13.1973	-265.585	-62.188	50.5871	-258.685	-64.0866	21.6596	-254.183	-56.6797	-7.9939	-238.506	-65.5422	60.6231	-232.211	-67.5313	36.269	-224.796	-74.0351	16.4749	-267.324	-60.9996	101.678	-263.819	-61.3041	130.274	-292.935	-48.9814	113.766	
7	0.0583333	-293.393	13.7093	116.14	-279.826	31.8805	90.6781	-276.184	42.4504	61.6727	-268.332	42.1447	39.154	-302.585	-8.05556	44.0138	-287.059	11.296	25.2161	-264.131	24.5196	22.8419	-296.412	-34.7106	40.2811	-292.364	-30.7398	15.1891	-282.32	-17.5558	-15.6637	-281.767	-46.2617	48.2838	-274.678	-49.7222	19.5638	-270.319	-43.3767	-5.94265	-256.795	-57.0547	56.016	-253.153	-58.0184	36.6072	-248.021	-65.462	9.39067	-276.119	-49.8525	100.536	-275.293	-47.6325	127.05	-304.083	-27.13	113.514	
8	0.0666667	-272.736	41.4489	113.143	-253.681	52.3434	87.9853	-246.36	58.1614	63.9493	-239.87	55.3554	37.0558	-292.508	27.6627	45.7561	-269.37	38.8107	23.6391	-241.5	49.8193	22.874	-296.263	2.07051	42.2633	-288.588	2.77039	10.3878	-276.441	10.621	-14.5851	-286.763	-17.033	44.6045	-283.066	-19.7689	17.8749	-277.491	-12.0527	-10.2949	-267.757	-33.9205	57.5561	-267.048	-35.8788	34.6519	-266.243	-44.1502	8.06611	-283.938	-19.747	96.5315	-279.861	-22.0266	127.416	-296.531	8.15836	112.812	
9	0.075	-244.932	55.8265	114.111	-220.466	64.2719	88.2386	-210.928	68.6322	65.2112	-207.841	59.6514	41.2522	-265.573	57.0541	43.7539	-245.428	55.2824	24.1156	-213.959	51.909	20.5698	-280.955	35.5823	38.021	-274.44	36.6569	10.5675	-258.891	36.1761	-14.9033	-280.414	15.3074	41.1364	-278.025	7.44892	16.7673	-268.882	11.6696	-11.0516	-269.722	-6.56997	55.2029	-270.132	-13.8022	28.9463	-272.449	-17.7156	5.80609	-279.887	4.47245	94.2337	-278.673	3.44693	120.735	-279.819	38.3194	111.763	
10	0.0833333	-215.755	59.9871	111.995	-192.064	56.0182	89.713	-180.369	55.883	64.3782	-177.649	49.4219	38.6596	-231.742	65.4539	41.7343	-210.492	60.4595	24.0904	-184.383	40.3375	22.2254	-255.211	52.6131	34.3309	-247.531	51.3276	9.83522	-233.334	42.1229	-16.3932	-263.938	27.8265	40.1858	-262.522	26.6819	14.1286	-252.557	27.1835	-14.7892	-262.239	9.58817	52.2184	-265.466	3.76639	27.3498	-268.642	-0.26634	4.34638	-268.19	24.4672	91.9095	-267.302	23.0988	117.069	-256.893	53.8714	108.311	
11	0.0916667	-194.457	43.2697	115.829	-167.405	35.2108	94.4927	-156.019	31.1617	69.4152	-158.655	22.4155	45.4744	-199.425	56.9254	42.3481	-180.118	41.7358	25.3498	-166.814	17.8766	24.4625	-227.367	50.655	36.551	-220.37	44.4929	7.26895	-204.886	31.7618	-18.5368	-243.753	31.9673	41.1621	-240.598	31.0719	14.2362	-235.03	23.9631	-12.1598	-251.1	15.5851	46.398	-253.062	9.80082	28.7947	-261.355	4.1423	2.41612	-253.259	32.6253	88.7494	-255.929	28.9794	117.48	-228.484	55.4817	106.045	
12	0.1	-177.507	26.1713	115.294	-158.473	7.25489	99.0312	-141.729	-1.78037	76.88	-142.028	-10.0734	52.0267	-172.518	35.1369	44.6525	-157.284	15.6804	30.5676	-152.339	-11.5554	30.9243	-199.474	37.0299	35.9345	-193.348	25.8335	8.52585	-184.557	10.0001	-12.1102	-225.149	23.6774	39.8004	-217.731	20.2926	12.1122	-213.291	9.86315	-11.7431	-239.117	7.93248	51.3559	-240.814	3.60382	30.4728	-247.35	2.54435	2.71987	-230.438	30.5642	87.6084	-238.356	29.9468	119.528	-208.104	44.453	108.527	
13	0.108333	-164.392	9.49391	124.764	-144.76	-13.7712	107.013	-133.618	-26.9262	84.846	-135.729	-38.5907	61.7312	-158.82	13.8813	50.982	-145.391	-8.16621	36.523	-143.876	-41.8646	41.9131	-180.298	19.0087	36.7479	-171.806	5.49794	13.5171	-164.47	-13.4513	-5.00459	-204.33	12.5016	39.5912	-201.781	4.5427	17.7299	-194.784	-8.01062	-6.42361	-222.449	2.10245	48.3095	-227.087	-6.6859	26.6599	-230.046	-7.83657	4.56086	-215.041	23.0618	87.9235	-223.757	28.7768	116.473	-191.592	36.5986	111.305	
14	0.116667	-154.606	0.923988	130.721	-138.234	-24.0464	119.583	-125.735	-40.8142	98.9535	-128.27	-53.089	76.0079	-145.055	-5.45453	55.2714	-134.592	-29.7976	45.47	-135.056	-59.8589	55.5929	-166.106	0.976635	45.2894	-157.048	-14.6517	21.8365	-149.843	-41.3694	1.25947	-190.52	-4.58261	44.6234	-186.9	-15.839	20.6542	-179.002	-30.1403	1.45601	-214.428	-14.4612	52.1392	-215.318	-22.312	35.4348	-218.163	-28.5188	7.03295	-208.687	12.6146	91.1393	-212.696	18.5669	117.033	-181.385	24.7965	110.206	
15	0.125	-152.581	4.59757	133.027	-132.754	-18.8641	122.277	-116.082	-35.1111	102.482	-114.516	-49.7055	87.1255	-137.23	-6.52448	61.3226	-121.017	-31.4113	54.3409	-123.386	-63.4008	68.518	-162.646	-6.80328	47.9958	-145.587	-24.4445	25.2968	-136.247	-46.7838	11.308	-184.445	-15.2571	48.6682	-175.685	-27.9927	27.2634	-167.135	-45.7121	7.27867	-205.675	-27.1746	56.4057	-201.017	-37.1228	38.5379	-200.162	-46.0382	13.818	-201.682	4.31413	89.2522	-212.166	14.1172	116.023	-178.241	24.4116	106.924	
16	0.133333	-159.424	21.8761	131.656	-130.346	2.96566	120.866	-113.212	-8.42647	107.472	-105.131	-25.3704	86.6078	-142.009	6.52855	61.296	-118.863	-17.7132	57.558	-109.586	-39.9244	74.0025	-164.6	-4.68003	49.1028	-145.739	-19.95	27.9919	-126.655	-39.0845	17.0417	-177.675	-16.7103	49.2368	-168.461	-32.3131	27.8294	-151.375	-48.1383	9.82052	-195.323	-34.4714	58.6478	-189.18	-45.3837	43.5048	-183.603	-56.999	22.4414	-207.68	1.23557	91.5119	-217.907	10.6097	111.758	-190.458	27.058	102.204	
17	0.141667	-172.987	39.8377	124.596	-143.953	29.8794	120.515	-120.493	24.7725	106.186	-105.107	10.9304	87.3306	-152.476	26.4591	57.8325	-123.145	9.28313	55.3669	-106.384	-4.93955	73.1948	-167.707	4.76998	42.8114	-146.735	-2.99136	27.6379	-118.532	-20.1059	17.1386	-179.967	-14.2367	47.7051	-165.508	-24.2536	29.9775	-140.305	-30.4992	14.3718	-188.579	-30.9187	62.5279	-177.463	-45.0412	44.0917	-169.535	-53.9394	27.8492	-210.866	-0.0957608	87.478	-225.711	2.77981	109.984	-207.25	28.3511	99.471	
18	0.15	-191.31	53.731	117.644	-161.935	52.351	114.308	-133.961	54.3122	97.2148	-121.081	41.5271	82.4385	-169.196	40.2095	53.5219	-136.965	37.8984	49.3835	-114.404	27.4002	68.4485	-178.809	16.5616	41.8786	-151.453	10.0924	22.7414	-127.069	6.15611	15.8112	-182.54	-5.53001	48.4245	-162.676	-13.8292	27.837	-137.653	-14.3882	11.4348	-183.586	-24.8816	63.4594	-168.892	-32.7474	44.4312	-159.755	-40.8263	28.2648	-215.008	0.960729	88.4601	-231.926	-0.147658	111.463	-219.61	28.2096	98.2341	
19	0.158333	-210.284	53.5272	114.985	-180.448	66.7245	108.467	-158.628	71.2316	92.0942	-139.267	66.8304	75.5072	-184.177	43.4256	45.9298	-158.566	50.3089	43.1432	-131.837	51.0281	62.194	-188.448	18.9861	36.7761	-166.3	24.5179	20.4767	-138.399	24.2275	11.3342	-185.112	-3.77279	44.188	-168.993	-3.03736	28.0236	-144.536	0.808311	9.02655	-183.12	-21.0009	64.7541	-168.472	-26.3111	47.3617	-154.942	-33.0799	28.054	-219.43	-4.07384	85.4885	-232.372	-4.79258	115.446	-233.573	27.8608	97.3231	
20	0.166667	-229.861	46.4917	113.786	-203.059	67.5325	99.669	-184.405	77.8228	81.326	-165.195	76.5979	64.4635	-208.6	39.0825	44.7522	-178.333	52.9831	38.0755	-154.199	63.2261	54.6661	-203.206	12.9622	37.6543	-185.218	23.8612	16.6315	-156.83	32.0087	3.63021	-195.209	-4.75014	45.2992	-176.271	-2.38757	21.1306	-159.717	7.55899	5.42865	-185.844	-18.9007	62.5262	-171.073	-21.2571	45.0935	-160.585	-24.3275	24.2461	-222.65	-10.7758	88.184	-234.062	-13.2827	113.103	-243.101	12.6185	93.9959	
21	0.175	-246.243	38.5687	108.318	-226.065	59.3252	98.8745	-210.549	73.5109	75.9643	-194.303	73.4603	60.8826	-226.658	30.209	40.7684	-205.822	48.7029	31.1287	-182.045	63.2786	42.2726	-219.97	6.55573	32.3961	-200.071	14.5321	12.5236	-179.838	27.1597	-1.66018	-207.129	-11.5696	45.3269	-191.39	-6.80002	19.5133	-175.089	1.74409	1.67798	-193.108	-21.6387	58.4415	-179.646	-22.0368	39.635	-168.661	-26.5477	23.2044	-229.299	-20.0825	88.7996	-238.004	-23.8446	119.197	-253.573	0.515023	97.9544	
